<svg xmlns="http://www.w3.org/2000/svg" xmlns:xlink="http://www.w3.org/1999/xlink" width="200" zoomAndPan="magnify" viewBox="0 0 150 44.999999" height="60" preserveAspectRatio="xMidYMid meet" version="1.0"><defs><g/></defs><g fill="rgb(16.859436%, 16.859436%, 16.859436%)" fill-opacity="1"><g transform="translate(12.719006, 31.499998)"><g><path d="M 18.222656 -18.160156 C 17.632812 -19.046875 16.28125 -19.738281 15.457031 -18.71875 C 15.226562 -18.453125 15.191406 -18.027344 14.960938 -17.796875 C 14.765625 -17.566406 14.5 -17.367188 14.335938 -17.003906 C 14.105469 -16.578125 13.90625 -16.148438 13.644531 -15.753906 C 12.554688 -14.136719 11.46875 -12.457031 10.347656 -10.84375 L 8.765625 -8.601562 C 8.632812 -8.4375 7.347656 -6.558594 7.382812 -6.558594 C 7.449219 -6.523438 7.578125 -6.691406 7.710938 -6.820312 C 7.050781 -6.03125 6.292969 -5.238281 5.535156 -4.449219 C 5.304688 -4.183594 3.890625 -2.503906 3.394531 -2.800781 C 3.066406 -3 3.296875 -4.121094 3.328125 -4.414062 C 3.492188 -5.703125 3.789062 -6.988281 4.121094 -8.238281 C 4.8125 -10.972656 5.867188 -13.644531 7.183594 -16.148438 C 7.808594 -17.335938 8.503906 -18.488281 9.292969 -19.574219 C 9.65625 -20.070312 10.019531 -20.5625 10.445312 -21.023438 C 10.808594 -21.386719 11.433594 -21.785156 11.796875 -22.210938 C 11.535156 -21.949219 11.007812 -21.652344 10.777344 -21.421875 C 10.28125 -20.960938 9.855469 -20.464844 9.457031 -19.9375 C 8.667969 -18.882812 7.941406 -17.796875 7.316406 -16.640625 C 8.304688 -18.519531 9.492188 -20.398438 11.074219 -21.816406 C 11.632812 -22.34375 12.292969 -22.804688 13.015625 -23.070312 C 13.542969 -23.265625 13.941406 -23.332031 14.269531 -23.199219 C 14.46875 -23.070312 14.664062 -22.804688 14.796875 -22.410156 C 14.730469 -22.476562 14.632812 -22.574219 14.53125 -22.738281 C 14.632812 -22.542969 14.699219 -22.308594 14.765625 -22.113281 C 14.796875 -21.980469 15.09375 -20.925781 15.160156 -20.960938 C 15.226562 -20.992188 15.125 -21.320312 15.125 -21.355469 C 15.324219 -20.597656 15.585938 -20.300781 16.410156 -20.828125 C 16.773438 -21.058594 17.335938 -21.519531 17.335938 -21.980469 C 17.367188 -22.542969 16.640625 -23.070312 16.28125 -23.398438 C 15.355469 -24.1875 14.105469 -25.046875 12.886719 -25.308594 C 12.226562 -25.441406 11.5 -25.574219 10.84375 -25.34375 C 9.558594 -24.882812 8.535156 -23.792969 7.710938 -22.773438 C 6.753906 -21.585938 5.832031 -20.367188 5.074219 -19.046875 L 4.085938 -17.105469 C 3.855469 -16.640625 3.261719 -15.949219 3.230469 -15.421875 C 3.230469 -15.421875 3.363281 -15.585938 3.460938 -15.71875 C 3.195312 -15.191406 2.933594 -14.664062 2.734375 -14.136719 C 2.703125 -14.171875 2.867188 -14.597656 2.867188 -14.597656 C 2.636719 -14.632812 1.746094 -12.390625 1.648438 -12.191406 C 1.1875 -11.105469 0.789062 -9.984375 0.59375 -8.800781 C 0.363281 -7.644531 0.03125 -6.523438 0 -5.339844 C 0 -4.777344 0.03125 -4.183594 0.199219 -3.625 C 0.230469 -3.394531 0.296875 -3.128906 0.429688 -2.898438 C 0.460938 -2.898438 0.726562 -2.339844 0.625 -2.667969 L 1.023438 -1.976562 C 1.023438 -1.976562 0.726562 -2.273438 0.691406 -2.371094 C 0.726562 -2.207031 1.121094 -1.8125 1.121094 -1.8125 C 1.648438 -0.988281 2.636719 0.164062 3.722656 0.0976562 C 4.910156 0.03125 6.03125 -1.78125 6.65625 -2.601562 C 8.601562 -5.339844 10.414062 -8.238281 12.160156 -11.074219 L 11.898438 -10.148438 C 11.863281 -10.183594 11.960938 -10.414062 11.898438 -10.414062 C 11.566406 -10.445312 10.972656 -7.644531 10.972656 -7.414062 C 10.90625 -6.789062 10.84375 -6.195312 10.710938 -5.570312 C 10.644531 -5.140625 10.546875 -4.746094 10.511719 -4.316406 C 10.511719 -4.285156 10.546875 -3.691406 10.613281 -3.691406 C 10.578125 -3.65625 10.613281 -3.59375 10.613281 -3.527344 C 10.613281 -3.558594 10.578125 -3.59375 10.578125 -3.625 C 10.480469 -3.59375 10.546875 -2.601562 10.546875 -2.472656 C 10.445312 -1.910156 10.347656 -1.417969 10.347656 -0.824219 C 10.414062 0.527344 10.875 2.011719 11.929688 2.964844 C 12.523438 3.460938 13.28125 3.757812 14.070312 3.757812 C 15.027344 3.757812 15.523438 3.195312 16.050781 2.503906 C 16.378906 2.109375 17.796875 -1.515625 16.609375 -0.988281 C 16.28125 -0.855469 15.882812 -0.0664062 15.652344 0.199219 C 15.324219 0.59375 14.664062 1.515625 14.070312 1.613281 C 13.972656 1.613281 13.875 1.714844 13.773438 1.648438 C 13.578125 1.515625 13.347656 0.0664062 13.3125 0.0664062 C 13.246094 0.199219 13.246094 0.328125 13.246094 0.460938 C 13.148438 -0.527344 13.414062 -1.78125 13.542969 -2.867188 C 13.710938 -4.21875 13.839844 -5.601562 14.070312 -6.988281 C 14.269531 -8.335938 14.632812 -9.6875 15.09375 -11.007812 C 15.191406 -11.335938 16.410156 -14.53125 16.640625 -14.796875 C 16.378906 -14.632812 15.585938 -12.71875 15.191406 -11.667969 C 15.785156 -13.3125 16.476562 -14.894531 17.464844 -16.34375 C 17.398438 -16.214844 17.300781 -16.082031 17.335938 -16.082031 C 17.464844 -16.015625 18.191406 -17.167969 18.125 -17.203125 C 18.058594 -17.203125 18.027344 -17.167969 17.992188 -17.136719 C 18.222656 -17.433594 18.554688 -17.632812 18.222656 -18.160156 Z M 3.492188 -7.316406 C 3.824219 -9.621094 4.515625 -11.996094 5.4375 -14.136719 C 6.226562 -16.015625 7.183594 -17.761719 8.207031 -19.507812 C 8.765625 -20.496094 9.558594 -21.683594 10.578125 -22.507812 C 9.6875 -21.75 8.964844 -20.730469 8.4375 -19.804688 C 7.347656 -18.027344 6.492188 -16.148438 5.734375 -14.203125 C 4.941406 -12.128906 4.285156 -9.917969 3.757812 -7.777344 C 3.492188 -6.691406 3.261719 -5.601562 3.195312 -4.515625 L 3.128906 -3.921875 L 3.128906 -4.054688 C 3.195312 -5.140625 3.363281 -6.261719 3.492188 -7.316406 Z M 10.875 -2.273438 C 10.875 -2.964844 10.90625 -3.558594 11.074219 -4.21875 C 11.140625 -4.414062 11.203125 -4.648438 11.304688 -4.878906 C 11.238281 -4.382812 11.269531 -3.824219 11.238281 -3.296875 C 11.171875 -2.667969 11.039062 -2.074219 10.972656 -1.449219 C 10.941406 -1.085938 10.90625 -0.726562 10.941406 -0.363281 C 10.875 -0.988281 10.84375 -1.613281 10.875 -2.273438 Z M 5.964844 -13.839844 L 5.898438 -13.742188 L 5.964844 -13.90625 Z M 11.140625 -22.9375 L 10.742188 -22.640625 C 10.875 -22.738281 11.007812 -22.871094 11.140625 -22.9375 Z M 14.300781 -23.132812 L 14.433594 -22.871094 C 14.367188 -22.96875 14.300781 -23.070312 14.300781 -23.132812 Z M 14.53125 -22.773438 L 14.433594 -22.871094 C 14.46875 -22.804688 14.53125 -22.773438 14.53125 -22.773438 Z M 15.09375 -11.402344 L 15.191406 -11.667969 Z M 15.09375 -11.402344 "/></g></g></g><g fill="rgb(16.859436%, 16.859436%, 16.859436%)" fill-opacity="1"><g transform="translate(29.920517, 31.499998)"><g><path d="M 13.609375 -8.105469 L 13.609375 -8.140625 C 13.347656 -8.964844 11.960938 -6.820312 11.796875 -6.625 C 10.710938 -5.371094 9.457031 -3.953125 7.875 -3.328125 C 7.480469 -3.128906 6.691406 -2.867188 6.492188 -3.328125 C 6.359375 -3.625 6.492188 -4.316406 6.460938 -4.648438 C 6.394531 -5.074219 6.328125 -5.535156 6.128906 -5.933594 C 5.570312 -6.855469 4.941406 -6.226562 4.746094 -5.46875 C 4.582031 -4.710938 4.582031 -3.855469 4.746094 -3.128906 C 4.8125 -2.734375 5.140625 -2.339844 5.207031 -1.945312 C 5.273438 -1.613281 5.109375 -1.121094 5.042969 -0.789062 C 4.746094 0.691406 4.285156 2.109375 3.691406 3.492188 C 3.296875 4.480469 1.21875 9.0625 -0.03125 6.722656 L -0.0664062 6.691406 L 0.0664062 6.789062 C -0.230469 5.46875 0.230469 3.855469 0.527344 2.570312 C 0.988281 0.691406 1.550781 -1.121094 2.175781 -2.933594 C 2.308594 -3.394531 2.472656 -3.855469 2.636719 -4.351562 C 2.835938 -4.84375 2.898438 -4.976562 3.230469 -5.339844 C 3.65625 -5.765625 4.054688 -6.226562 4.449219 -6.65625 C 5.703125 -8.105469 6.921875 -9.558594 8.074219 -11.039062 C 9.984375 -13.511719 11.730469 -16.28125 12.953125 -19.148438 C 13.578125 -20.664062 14.53125 -25.175781 11.535156 -24.847656 C 10.019531 -24.683594 8.734375 -22.507812 7.941406 -21.386719 C 6.855469 -19.804688 5.898438 -18.09375 5.042969 -16.410156 C 3.460938 -13.378906 1.945312 -10.316406 1.023438 -7.050781 C 0.03125 -3.59375 -1.417969 -0.230469 -1.613281 3.460938 C -1.714844 4.976562 -1.714844 7.21875 -0.363281 8.238281 C 1.1875 9.425781 2.800781 8.46875 3.722656 7.050781 C 4.777344 5.4375 5.207031 3.296875 5.734375 1.449219 C 5.867188 0.988281 5.964844 0.527344 6.0625 0.0664062 C 6.097656 -0.199219 6.128906 -1.285156 6.328125 -1.449219 C 6.492188 -1.613281 7.21875 -1.582031 7.414062 -1.648438 C 9.09375 -2.109375 10.90625 -3.460938 11.796875 -4.976562 C 12.324219 -5.800781 13.90625 -6.953125 13.609375 -8.105469 Z M 4.679688 -9.65625 C 4.679688 -9.6875 4.710938 -9.722656 4.710938 -9.753906 L 4.710938 -9.722656 C 4.910156 -10.148438 4.941406 -10.28125 4.910156 -10.25 C 6.0625 -12.984375 7.25 -15.71875 8.632812 -18.324219 C 9.328125 -19.609375 9.984375 -20.925781 10.875 -22.078125 C 11.105469 -22.375 11.5 -23.035156 11.929688 -22.902344 C 13.183594 -22.542969 10.019531 -16.246094 9.558594 -15.488281 C 7.976562 -12.820312 6.0625 -10.316406 3.988281 -7.976562 Z M 0.328125 1.285156 C 0.460938 0.824219 0.59375 0.363281 0.757812 -0.0664062 C 0.527344 0.660156 0.328125 1.449219 0.199219 2.207031 C 0.0664062 2.835938 -0.429688 4.351562 -0.429688 5.503906 C -0.59375 4.085938 -0.0976562 2.539062 0.328125 1.285156 Z M 4.8125 -9.984375 L 4.910156 -10.25 C 4.910156 -10.214844 4.84375 -10.085938 4.8125 -9.984375 Z M 4.8125 -9.984375 "/></g></g></g><g fill="rgb(16.859436%, 16.859436%, 16.859436%)" fill-opacity="1"><g transform="translate(41.157516, 31.499998)"><g><path d="M 13.511719 -8.007812 C 13.3125 -8.863281 12.523438 -7.710938 12.359375 -7.515625 L 10.546875 -5.074219 L 8.765625 -2.734375 L 7.808594 -1.515625 C 7.710938 -1.382812 6.988281 -0.460938 7.050781 -0.460938 C 7.117188 -0.527344 7.21875 -0.527344 7.316406 -0.625 C 6.820312 -0.0976562 5.007812 1.550781 4.679688 1.152344 C 4.414062 0.824219 5.140625 -0.558594 5.238281 -0.890625 C 5.601562 -1.84375 5.933594 -2.835938 6.328125 -3.757812 C 6.753906 -4.710938 7.25 -5.667969 7.644531 -6.625 C 8.042969 -7.644531 7.449219 -8.007812 6.492188 -8.238281 C 6.0625 -8.335938 5.535156 -8.335938 5.042969 -8.402344 C 5.042969 -8.371094 5.074219 -8.371094 5.074219 -8.371094 C 5.503906 -8.304688 6.128906 -8.273438 6.65625 -8.105469 C 5.867188 -8.335938 4.878906 -8.238281 4.25 -8.402344 C 3.824219 -8.503906 3.558594 -8.503906 3.625 -8.996094 C 3.691406 -9.65625 4.382812 -10.347656 4.613281 -10.972656 C 4.613281 -10.941406 4.382812 -10.347656 4.414062 -10.347656 C 4.582031 -10.28125 4.84375 -11.203125 4.84375 -11.335938 C 4.8125 -11.5 4.414062 -11.996094 4.382812 -11.796875 L 4.449219 -11.699219 C 2.867188 -12.785156 0.988281 -10.546875 1.316406 -8.929688 C 1.382812 -8.699219 1.515625 -8.566406 1.613281 -8.304688 C 1.679688 -8.105469 1.613281 -7.875 1.8125 -7.613281 C 2.503906 -6.753906 3.757812 -6.722656 4.746094 -6.921875 C 4.582031 -6.691406 2.835938 -3 2.933594 -2.964844 L 2.703125 -2.140625 C 2.667969 -2.175781 2.800781 -2.4375 2.734375 -2.4375 C 2.503906 -2.472656 2.042969 -0.558594 2.011719 -0.394531 C 1.878906 0.394531 1.910156 1.085938 2.242188 1.8125 C 2.4375 2.273438 2.667969 2.667969 3.097656 2.933594 C 3.492188 3.195312 3.988281 3.328125 4.449219 3.230469 C 4.613281 3.164062 5.238281 2.734375 5.074219 2.769531 L 5.304688 2.667969 C 5.273438 2.703125 5.238281 2.734375 5.238281 2.769531 C 5.339844 2.800781 6.855469 1.582031 7.050781 1.449219 C 8.105469 0.558594 8.964844 -0.527344 9.753906 -1.613281 C 10.546875 -2.734375 11.371094 -3.855469 12.128906 -4.976562 C 12.488281 -5.503906 12.820312 -6.03125 13.082031 -6.589844 C 13.28125 -6.988281 13.609375 -7.546875 13.511719 -8.007812 Z M 3.65625 -4.054688 C 3.890625 -4.648438 4.152344 -5.207031 4.449219 -5.765625 C 4.515625 -5.867188 4.976562 -7.050781 5.207031 -7.117188 C 5.042969 -7.019531 4.351562 -5.40625 4.183594 -5.109375 L 3.558594 -3.65625 C 3.230469 -2.867188 2.867188 -2.042969 2.636719 -1.1875 C 2.867188 -2.175781 3.261719 -3.128906 3.65625 -4.054688 Z M 2.867188 2.273438 C 3.066406 2.539062 3.328125 2.800781 3.691406 2.933594 C 3.394531 2.835938 3.128906 2.667969 2.933594 2.472656 C 2.964844 2.472656 2.964844 2.503906 2.964844 2.539062 C 2.769531 2.273438 2.503906 1.714844 2.472656 1.613281 C 2.371094 1.21875 2.339844 0.757812 2.371094 0.363281 C 2.371094 0.03125 2.40625 -0.230469 2.472656 -0.527344 L 2.472656 -0.496094 C 2.40625 -0.0664062 2.371094 0.363281 2.40625 0.824219 L 2.40625 0.988281 C 2.371094 0.957031 2.371094 0.921875 2.371094 0.921875 C 2.371094 0.921875 2.371094 0.957031 2.40625 1.023438 L 2.40625 1.054688 L 2.539062 1.746094 L 2.4375 1.316406 C 2.503906 1.515625 2.667969 1.878906 2.835938 2.242188 L 2.800781 2.207031 C 2.800781 2.242188 2.835938 2.273438 2.867188 2.308594 Z M 3.789062 -8.601562 C 3.953125 -8.46875 4.25 -8.4375 4.546875 -8.402344 C 4.285156 -8.4375 4.054688 -8.503906 3.890625 -8.632812 C 3.890625 -8.632812 3.691406 -8.800781 3.65625 -8.863281 C 3.65625 -8.800781 3.722656 -8.632812 3.789062 -8.601562 Z M 7.25 -6.03125 L 6.558594 -4.582031 L 7.25 -6.0625 Z M 2.503906 -0.625 C 2.503906 -0.59375 2.472656 -0.558594 2.472656 -0.527344 L 2.472656 -0.558594 C 2.472656 -0.59375 2.503906 -0.59375 2.503906 -0.625 Z M 7.28125 -6.128906 L 7.28125 -6.097656 L 7.25 -6.097656 Z M 7.28125 -6.128906 L 7.28125 -6.097656 L 7.25 -6.097656 Z M 2.539062 -1.054688 C 2.539062 -1.085938 2.570312 -1.121094 2.570312 -1.1875 C 2.570312 -1.121094 2.539062 -1.085938 2.539062 -1.054688 Z M 2.667969 1.976562 C 2.667969 1.976562 2.703125 2.011719 2.703125 2.042969 C 2.703125 2.011719 2.667969 2.011719 2.667969 1.976562 Z M 3.691406 -8.929688 C 3.65625 -8.929688 3.65625 -8.898438 3.65625 -8.898438 Z M 3.691406 -8.929688 "/></g></g></g><g fill="rgb(16.859436%, 16.859436%, 16.859436%)" fill-opacity="1"><g transform="translate(52.262702, 31.499998)"><g><path d="M 15.160156 -8.207031 C 15.160156 -8.207031 15.191406 -8.171875 15.160156 -8.238281 C 14.996094 -8.46875 14.765625 -8.304688 14.53125 -8.238281 C 13.578125 -8.042969 12.589844 -7.808594 11.601562 -7.644531 C 11.960938 -8.832031 12.324219 -10.085938 12.457031 -11.304688 C 12.523438 -11.765625 12.554688 -12.257812 12.457031 -12.71875 C 12.390625 -13.015625 12.292969 -13.3125 12.128906 -13.578125 C 12.128906 -13.578125 11.730469 -14.070312 11.832031 -13.808594 L 11.796875 -13.839844 L 11.667969 -14.105469 L 11.796875 -13.972656 C 11.832031 -14.171875 11.269531 -14.53125 11.269531 -14.53125 C 10.445312 -15.355469 9.328125 -15.984375 8.207031 -15.355469 C 7.515625 -14.960938 6.953125 -14.300781 6.492188 -13.644531 C 6.328125 -13.414062 6.164062 -13.148438 6.03125 -12.886719 C 5.898438 -12.621094 5.703125 -11.765625 5.503906 -11.632812 C 5.339844 -11.5 4.84375 -11.46875 4.613281 -11.335938 C 4.285156 -11.203125 3.988281 -11.039062 3.722656 -10.84375 C 3.097656 -10.445312 2.601562 -9.886719 2.140625 -9.328125 C 1.351562 -8.273438 0.957031 -7.085938 0.394531 -6.03125 C -0.660156 -4.019531 0.496094 -1.382812 2.4375 -0.429688 C 3.066406 -0.132812 3.789062 0 4.449219 -0.0664062 C 5.140625 -0.164062 5.800781 -0.527344 6.328125 -0.921875 C 6.820312 -1.285156 7.910156 -1.945312 8.105469 -2.503906 C 8.105469 -2.539062 8.042969 -2.503906 7.941406 -2.40625 L 8.898438 -3.527344 C 8.929688 -3.492188 8.667969 -3.164062 8.667969 -3.164062 C 8.898438 -3.066406 10.085938 -4.8125 10.214844 -4.941406 C 10.445312 -5.339844 10.675781 -5.765625 10.941406 -6.164062 C 11.171875 -6.460938 11.105469 -6.425781 11.433594 -6.558594 C 11.402344 -6.523438 11.832031 -6.65625 11.898438 -6.65625 C 12.257812 -6.722656 16.113281 -6.988281 15.160156 -8.207031 Z M 3.757812 -1.550781 L 3.722656 -1.550781 C 0.988281 -1.152344 4.152344 -6.953125 4.21875 -7.28125 L 4.019531 -6.988281 C 4.515625 -7.976562 4.976562 -8.765625 5.207031 -9.03125 C 5.570312 -7.382812 7.347656 -6.753906 8.800781 -6.558594 C 7.84375 -4.648438 6.0625 -1.976562 3.757812 -1.550781 Z M 10.25 -10.675781 C 10.019531 -9.753906 9.820312 -8.535156 9.328125 -7.710938 C 9.160156 -7.382812 9.261719 -7.480469 8.929688 -7.414062 C 8.734375 -7.347656 8.304688 -7.414062 8.105469 -7.449219 C 7.746094 -7.480469 7.316406 -7.546875 7.050781 -7.777344 C 6.589844 -8.171875 6.65625 -8.800781 6.722656 -9.359375 C 6.789062 -9.917969 6.953125 -10.445312 7.152344 -10.972656 C 7.25 -11.171875 7.875 -12.226562 7.777344 -12.425781 C 7.746094 -12.523438 7.382812 -11.929688 7.347656 -11.898438 C 7.546875 -12.257812 7.746094 -12.457031 7.910156 -12.6875 C 7.875 -12.6875 7.910156 -12.71875 7.941406 -12.785156 L 7.941406 -12.753906 L 7.976562 -12.820312 C 7.976562 -12.820312 7.976562 -12.851562 8.007812 -12.851562 C 8.503906 -13.511719 9.722656 -14.996094 10.378906 -13.972656 C 10.875 -13.117188 10.414062 -11.5 10.25 -10.675781 Z M 7.976562 -12.820312 L 8.007812 -12.851562 C 8.007812 -12.820312 7.976562 -12.820312 7.976562 -12.820312 Z M 7.976562 -12.820312 "/></g></g></g><g fill="rgb(16.859436%, 16.859436%, 16.859436%)" fill-opacity="1"><g transform="translate(65.147352, 31.499998)"><g><path d="M 11.929688 -6.097656 C 12.226562 -6.523438 13.414062 -7.777344 12.917969 -8.335938 C 12.257812 -8.996094 10.546875 -6.261719 10.28125 -5.933594 C 9.753906 -5.238281 9.195312 -4.582031 8.667969 -3.921875 C 8.371094 -3.558594 8.074219 -3.195312 7.746094 -2.867188 C 7.679688 -2.800781 7.050781 -2.011719 7.117188 -2.011719 C 7.21875 -2.042969 7.316406 -2.109375 7.414062 -2.175781 C 6.855469 -1.582031 6.097656 -1.054688 5.40625 -0.527344 C 4.941406 -0.199219 4.054688 0.527344 3.492188 0.132812 C 3.261719 0 3.195312 -0.328125 3.128906 -0.558594 C 2.898438 -1.582031 3.066406 -2.800781 3.230469 -3.855469 C 3.59375 -6.0625 4.316406 -8.238281 5.207031 -10.316406 C 5.636719 -11.269531 6.0625 -12.226562 6.820312 -12.953125 C 6.886719 -13.015625 7.019531 -12.886719 7.050781 -12.917969 C 7.117188 -12.953125 6.855469 -13.050781 6.820312 -13.015625 C 6.460938 -12.820312 6.226562 -12.425781 6.03125 -12.0625 C 5.4375 -11.105469 4.976562 -10.050781 4.582031 -8.996094 C 4.878906 -9.820312 5.207031 -10.644531 5.601562 -11.46875 C 5.832031 -11.898438 6.097656 -12.589844 6.523438 -12.917969 C 7.644531 -13.808594 7.21875 -10.875 7.085938 -10.445312 C 7.085938 -10.480469 7.21875 -11.203125 7.183594 -11.203125 C 7.117188 -11.203125 6.65625 -9.523438 6.65625 -9.523438 L 6.820312 -9.65625 C 6.65625 -9.390625 6.328125 -9.195312 6.753906 -8.898438 C 7.28125 -8.535156 8.304688 -9.160156 8.535156 -9.621094 C 8.765625 -10.117188 8.832031 -10.777344 8.863281 -11.269531 C 8.929688 -12.128906 8.699219 -12.621094 8.402344 -13.28125 C 8.074219 -13.972656 7.777344 -14.402344 6.886719 -14.53125 C 6.164062 -14.632812 5.503906 -14.335938 4.941406 -13.90625 C 4.121094 -13.3125 3.492188 -12.554688 2.964844 -11.699219 C 2.835938 -11.46875 1.648438 -9.0625 1.679688 -9.03125 L 1.8125 -9.195312 C 1.648438 -8.832031 1.550781 -8.46875 1.417969 -8.140625 C 1.382812 -8.140625 1.484375 -8.4375 1.449219 -8.4375 C 1.253906 -8.46875 0.660156 -6.65625 0.625 -6.492188 C 0.394531 -5.800781 0.230469 -5.109375 0.199219 -4.382812 C 0.164062 -3.59375 0.03125 -2.800781 0 -1.976562 C 0 -1.550781 0 -1.085938 0.0664062 -0.660156 C 0.0664062 -0.527344 0.328125 0.164062 0.328125 -0.03125 L 0.496094 0.527344 C 0.460938 0.496094 0.328125 0.164062 0.328125 0.164062 C 0.164062 0.363281 1.054688 1.648438 1.253906 1.84375 C 1.515625 2.140625 1.910156 2.273438 2.308594 2.339844 C 3.625 2.503906 4.878906 1.746094 5.832031 0.957031 C 7.480469 -0.429688 9.09375 -2.140625 10.316406 -3.921875 C 10.808594 -4.679688 11.371094 -5.371094 11.929688 -6.097656 Z M 2.273438 -8.503906 C 2.207031 -8.171875 2.109375 -7.808594 1.976562 -7.515625 C 1.878906 -7.28125 1.582031 -7.085938 1.550781 -6.921875 C 1.613281 -7.480469 2.042969 -8.042969 2.308594 -8.667969 C 2.308594 -8.601562 2.273438 -8.535156 2.273438 -8.503906 Z M 1.054688 -4.648438 C 0.921875 -4.414062 0.921875 -3.988281 0.921875 -3.625 C 0.890625 -4.019531 0.890625 -4.449219 1.023438 -4.84375 C 1.023438 -4.84375 1.121094 -4.710938 1.054688 -4.648438 Z M 3.425781 -5.4375 C 3.558594 -5.964844 3.722656 -6.492188 3.890625 -7.019531 Z M 1.121094 -5.273438 C 1.085938 -5.175781 1.023438 -5.042969 1.023438 -4.976562 C 1.023438 -5.140625 1.023438 -5.304688 1.1875 -5.371094 Z M 4.019531 -7.414062 C 3.988281 -7.382812 3.988281 -7.382812 3.988281 -7.347656 C 3.988281 -7.414062 3.988281 -7.480469 4.019531 -7.546875 Z M 4.019531 -7.414062 "/></g></g></g><g fill="rgb(16.859436%, 16.859436%, 16.859436%)" fill-opacity="1"><g transform="translate(75.758245, 31.499998)"><g><path d="M 15.585938 -8.042969 C 15.488281 -8.667969 13.972656 -6.921875 13.90625 -6.855469 C 12.953125 -5.832031 12.027344 -4.710938 10.90625 -3.824219 C 10.378906 -3.425781 10.148438 -3.195312 10.183594 -3.988281 C 10.214844 -4.679688 10.480469 -5.40625 10.675781 -6.03125 C 10.777344 -6.359375 11.433594 -7.613281 11.238281 -7.84375 C 11.203125 -7.875 11.140625 -7.777344 11.074219 -7.710938 C 11.535156 -8.632812 12.65625 -10.214844 11.171875 -10.644531 C 9.492188 -11.105469 8.632812 -9.292969 7.910156 -8.207031 C 7.21875 -7.21875 6.558594 -6.261719 5.765625 -5.371094 C 5.175781 -4.679688 4.25 -3.363281 3.296875 -3.097656 C 2.40625 -2.800781 3 -4.25 3.128906 -4.746094 C 3.230469 -5.007812 4.414062 -8.074219 4.480469 -8.042969 C 4.414062 -8.042969 4.351562 -8.007812 4.285156 -7.910156 C 4.648438 -8.699219 5.042969 -9.492188 5.46875 -10.25 C 5.371094 -10.050781 5.273438 -9.722656 5.273438 -9.722656 C 5.4375 -9.6875 6.226562 -11.304688 6.164062 -11.304688 C 6.097656 -11.269531 6.03125 -11.203125 5.964844 -11.105469 C 6.226562 -11.566406 6.558594 -11.796875 5.964844 -12.257812 C 5.371094 -12.71875 4.316406 -12.820312 3.722656 -12.292969 C 3 -11.699219 2.539062 -10.644531 2.175781 -9.820312 C 1.945312 -9.359375 1.550781 -9.09375 1.316406 -8.566406 C 0.855469 -7.546875 0.59375 -6.523438 0.328125 -5.46875 C 0.0664062 -4.449219 -0.0976562 -3.394531 0.0664062 -2.339844 C 0.164062 -1.878906 0.328125 -1.351562 0.691406 -1.023438 C 0.789062 -0.957031 1.746094 -0.59375 1.679688 -0.824219 C 1.613281 -0.824219 1.550781 -0.824219 1.515625 -0.855469 C 1.878906 -0.855469 2.242188 -1.023438 2.570312 -1.21875 C 2.601562 -1.1875 2.308594 -1.054688 2.308594 -1.023438 C 2.636719 -0.59375 5.140625 -3.128906 5.371094 -3.425781 C 6.195312 -4.480469 7.019531 -5.503906 7.875 -6.523438 C 7.449219 -5.371094 6.722656 -3.789062 7.414062 -2.539062 C 7.808594 -1.878906 8.566406 -1.515625 9.292969 -1.582031 C 10.84375 -1.679688 12.226562 -3.363281 13.183594 -4.382812 C 13.808594 -5.074219 14.433594 -5.800781 14.894531 -6.589844 C 15.09375 -6.921875 15.621094 -7.644531 15.585938 -8.042969 Z M 10.578125 -7.382812 C 10.511719 -7.183594 10.480469 -6.921875 10.378906 -6.753906 C 10.378906 -6.722656 10.347656 -6.691406 10.316406 -6.65625 C 10.347656 -6.691406 10.347656 -6.722656 10.347656 -6.753906 C 10.085938 -7.578125 11.074219 -8.632812 11.402344 -9.457031 C 11.140625 -8.734375 10.808594 -8.074219 10.578125 -7.382812 Z M 2.734375 -3.128906 C 2.539062 -4.085938 3.230469 -5.40625 3.59375 -6.292969 C 3.128906 -5.007812 2.667969 -3.425781 2.734375 -3.128906 Z M 7.875 -6.359375 C 7.875 -6.492188 7.910156 -6.589844 8.007812 -6.65625 C 7.941406 -6.558594 7.910156 -6.460938 7.875 -6.359375 Z M 7.875 -6.359375 "/></g></g></g><g fill="rgb(16.859436%, 16.859436%, 16.859436%)" fill-opacity="1"><g transform="translate(88.93948, 31.499998)"><g><path d="M 8.632812 -8.105469 C 8.566406 -8.535156 8.105469 -8.402344 7.875 -8.238281 C 7.578125 -8.042969 5.933594 -5.867188 6.0625 -5.703125 C 6.164062 -5.703125 6.226562 -5.703125 6.292969 -5.765625 C 5.832031 -5.207031 4.976562 -4.582031 4.351562 -4.085938 C 3.988281 -3.789062 3.097656 -2.964844 2.570312 -3.230469 C 1.449219 -3.789062 3.722656 -7.746094 3.625 -7.777344 C 3.527344 -7.808594 2.703125 -5.964844 2.539062 -5.535156 C 2.933594 -6.691406 3.460938 -7.84375 4.085938 -8.863281 C 4.054688 -8.765625 3.953125 -8.601562 4.019531 -8.601562 C 4.085938 -8.566406 4.582031 -9.261719 4.480469 -9.328125 C 4.449219 -9.328125 4.382812 -9.328125 4.351562 -9.292969 C 4.449219 -9.390625 4.613281 -9.425781 4.613281 -9.621094 C 4.613281 -9.953125 3.855469 -10.28125 3.59375 -10.378906 C 2.964844 -10.644531 2.339844 -10.710938 1.84375 -10.378906 C 1.1875 -9.984375 1.054688 -9.195312 0.789062 -8.503906 C 0.726562 -8.304688 0.0976562 -5.964844 0.230469 -5.933594 C 0.296875 -5.964844 0.296875 -5.996094 0.328125 -6.0625 L 0.230469 -5.46875 C 0.199219 -5.46875 0.261719 -5.636719 0.199219 -5.636719 C -0.0664062 -5.636719 0 -4.449219 0.03125 -4.285156 C 0.164062 -3.691406 0.625 -3.261719 0.988281 -2.769531 C 1.1875 -2.472656 1.382812 -2.175781 1.679688 -1.976562 C 2.074219 -1.679688 1.8125 -1.976562 2.074219 -1.84375 L 2.011719 -1.84375 C 1.976562 -1.648438 3.230469 -1.316406 3.492188 -1.351562 C 4.648438 -1.613281 5.46875 -3.03125 6.128906 -3.921875 C 6.753906 -4.710938 7.28125 -5.503906 7.84375 -6.328125 C 8.171875 -6.753906 8.765625 -7.480469 8.632812 -8.105469 Z M 2.867188 -12.257812 C 2.933594 -12.160156 2.835938 -12.027344 3.066406 -11.898438 C 3.296875 -11.796875 3.425781 -11.929688 3.625 -11.996094 C 4.019531 -12.160156 4.316406 -12.589844 4.613281 -12.851562 C 4.710938 -12.917969 4.515625 -12.886719 4.515625 -12.886719 C 4.941406 -13.28125 4.582031 -12.820312 4.976562 -13.050781 C 5.371094 -13.3125 5.4375 -13.742188 5.765625 -14.105469 C 5.371094 -13.941406 5.074219 -13.710938 4.8125 -13.378906 C 4.480469 -12.953125 4.25 -12.753906 3.890625 -12.523438 C 4.285156 -12.820312 4.480469 -13.117188 4.8125 -13.644531 C 4.910156 -13.742188 5.007812 -13.808594 5.140625 -13.875 C 5.042969 -13.972656 5.042969 -14.070312 5.175781 -14.171875 C 5.273438 -14.335938 5.46875 -14.402344 5.570312 -14.566406 C 5.734375 -14.796875 5.703125 -15.09375 5.898438 -15.324219 C 6.0625 -15.457031 6.292969 -15.554688 6.425781 -15.6875 C 6.722656 -15.949219 7.050781 -16.445312 6.921875 -16.871094 C 6.789062 -17.269531 6.460938 -17.761719 6.097656 -17.992188 C 5.667969 -18.222656 5.074219 -18.324219 4.613281 -18.125 C 4.515625 -18.09375 4.121094 -17.992188 4.25 -17.863281 C 4.285156 -17.796875 4.316406 -17.796875 4.382812 -17.796875 C 4.085938 -17.566406 3.59375 -17.167969 4.285156 -16.90625 C 4.21875 -16.839844 4.285156 -16.542969 4.285156 -16.511719 C 4.25 -16.28125 3.789062 -15.058594 3.492188 -14.46875 L 3.890625 -15.058594 C 3.65625 -14.566406 3.394531 -14.105469 3.097656 -13.710938 C 3.296875 -14.136719 2.898438 -13.644531 2.898438 -13.542969 C 2.539062 -13.710938 2.636719 -12.6875 2.667969 -12.589844 C 2.667969 -12.554688 2.867188 -12.257812 2.867188 -12.257812 Z M 2.242188 -4.414062 L 2.242188 -4.382812 L 2.175781 -4.183594 L 2.242188 -4.449219 C 2.273438 -4.480469 2.273438 -4.480469 2.242188 -4.414062 Z M 3.328125 -14.203125 C 3.328125 -14.203125 3.394531 -14.269531 3.460938 -14.402344 Z M 3 -13.578125 C 3 -13.542969 3 -13.542969 2.964844 -13.511719 C 2.964844 -13.511719 2.964844 -13.542969 2.933594 -13.542969 C 2.964844 -13.542969 2.964844 -13.542969 3 -13.578125 Z M 3 -13.578125 "/></g></g></g><g fill="rgb(16.859436%, 16.859436%, 16.859436%)" fill-opacity="1"><g transform="translate(95.167618, 31.499998)"><g><path d="M 13.082031 -7.746094 C 12.984375 -8.207031 12.71875 -8.273438 12.390625 -8.140625 C 11.765625 -7.84375 11.140625 -7.183594 10.546875 -6.789062 C 9.195312 -5.933594 7.84375 -5.238281 6.394531 -4.515625 C 6.394531 -4.546875 6.359375 -4.613281 6.328125 -4.710938 C 6.359375 -4.546875 6.328125 -4.480469 6.292969 -4.449219 C 5.964844 -5.867188 5.636719 -7.28125 5.371094 -8.734375 C 5.503906 -8.105469 5.800781 -7.050781 6.03125 -6.164062 C 5.734375 -7.546875 5.371094 -9.261719 5.40625 -9.261719 C 5.339844 -9.226562 5.339844 -9.160156 5.339844 -9.09375 C 5.273438 -9.492188 5.175781 -9.984375 5.238281 -10.414062 C 5.273438 -10.90625 5.535156 -11.335938 5.703125 -11.796875 C 5.667969 -11.566406 5.601562 -11.269531 5.601562 -11.269531 C 5.800781 -11.238281 5.933594 -12.457031 5.933594 -12.589844 C 5.898438 -12.785156 5.46875 -13.414062 5.46875 -13.246094 C 4.582031 -14.070312 2.835938 -12.257812 2.570312 -11.46875 C 2.371094 -10.941406 2.371094 -10.378906 2.40625 -9.820312 C 2.4375 -9.261719 2.601562 -8.765625 2.769531 -8.238281 C 2.867188 -7.84375 2.734375 -7.578125 2.769531 -7.152344 C 2.835938 -6.492188 3.066406 -5.832031 3.195312 -5.207031 C 3.328125 -4.710938 3.757812 -3.722656 3.65625 -3.261719 C 3.59375 -2.800781 2.601562 -2.40625 2.175781 -2.140625 C 1.613281 -1.78125 1.054688 -1.351562 0.496094 -0.921875 C -0.496094 -0.164062 -1.550781 0.789062 -1.945312 2.011719 C -2.011719 2.175781 -2.242188 2.898438 -2.011719 3.03125 C -1.976562 3.066406 -1.878906 2.503906 -1.84375 2.4375 C -2.273438 4.613281 -0.132812 5.667969 1.878906 5.703125 C 4.152344 5.765625 5.734375 4.449219 6.523438 2.40625 C 6.855469 1.515625 6.953125 0.59375 6.921875 -0.328125 C 6.921875 -0.957031 6.855469 -1.550781 6.753906 -2.140625 C 6.691406 -2.667969 6.625 -2.636719 6.988281 -2.933594 C 7.25 -3.128906 7.644531 -3.261719 7.910156 -3.394531 C 8.964844 -3.953125 9.917969 -4.613281 10.875 -5.304688 C 11.566406 -5.800781 13.214844 -6.65625 13.082031 -7.710938 Z M -0.230469 3.59375 C -1.085938 3.328125 -0.230469 1.976562 0.0664062 1.550781 C 0.558594 0.890625 1.285156 0.394531 1.945312 -0.0664062 L 2.933594 -0.726562 C 3.03125 -0.789062 3.65625 -1.285156 3.460938 -1.21875 L 3.855469 -1.449219 L 3.625 -1.253906 C 3.691406 -1.285156 3.789062 -1.316406 3.855469 -1.382812 C 3.890625 -0.59375 3.890625 0.199219 3.65625 0.988281 C 3.625 1.121094 3 2.4375 2.734375 2.703125 L 2.898438 2.570312 C 2.601562 2.933594 2.273438 3.230469 1.878906 3.460938 C 1.878906 3.425781 2.175781 3.230469 2.140625 3.195312 L 1.21875 3.558594 C 0.757812 3.65625 0.230469 3.757812 -0.230469 3.59375 Z M 3.921875 4.546875 C 3.066406 4.910156 2.242188 5.074219 1.351562 5.109375 C 2.964844 5.007812 4.648438 4.21875 5.601562 2.867188 C 5.238281 3.59375 4.777344 4.152344 3.921875 4.546875 Z M 6.328125 -4.8125 C 6.292969 -5.042969 6.226562 -5.371094 6.128906 -5.734375 C 6.195312 -5.371094 6.261719 -5.007812 6.328125 -4.8125 Z M 6.753906 -1.382812 C 6.722656 -1.417969 6.722656 -1.484375 6.722656 -1.550781 C 6.722656 -1.484375 6.753906 -1.417969 6.753906 -1.382812 Z M 6.753906 -1.382812 "/></g></g></g><g fill="rgb(16.859436%, 16.859436%, 16.859436%)" fill-opacity="1"><g transform="translate(105.844417, 31.499998)"><g><path d="M 8.632812 -8.105469 C 8.566406 -8.535156 8.105469 -8.402344 7.875 -8.238281 C 7.578125 -8.042969 5.933594 -5.867188 6.0625 -5.703125 C 6.164062 -5.703125 6.226562 -5.703125 6.292969 -5.765625 C 5.832031 -5.207031 4.976562 -4.582031 4.351562 -4.085938 C 3.988281 -3.789062 3.097656 -2.964844 2.570312 -3.230469 C 1.449219 -3.789062 3.722656 -7.746094 3.625 -7.777344 C 3.527344 -7.808594 2.703125 -5.964844 2.539062 -5.535156 C 2.933594 -6.691406 3.460938 -7.84375 4.085938 -8.863281 C 4.054688 -8.765625 3.953125 -8.601562 4.019531 -8.601562 C 4.085938 -8.566406 4.582031 -9.261719 4.480469 -9.328125 C 4.449219 -9.328125 4.382812 -9.328125 4.351562 -9.292969 C 4.449219 -9.390625 4.613281 -9.425781 4.613281 -9.621094 C 4.613281 -9.953125 3.855469 -10.28125 3.59375 -10.378906 C 2.964844 -10.644531 2.339844 -10.710938 1.84375 -10.378906 C 1.1875 -9.984375 1.054688 -9.195312 0.789062 -8.503906 C 0.726562 -8.304688 0.0976562 -5.964844 0.230469 -5.933594 C 0.296875 -5.964844 0.296875 -5.996094 0.328125 -6.0625 L 0.230469 -5.46875 C 0.199219 -5.46875 0.261719 -5.636719 0.199219 -5.636719 C -0.0664062 -5.636719 0 -4.449219 0.03125 -4.285156 C 0.164062 -3.691406 0.625 -3.261719 0.988281 -2.769531 C 1.1875 -2.472656 1.382812 -2.175781 1.679688 -1.976562 C 2.074219 -1.679688 1.8125 -1.976562 2.074219 -1.84375 L 2.011719 -1.84375 C 1.976562 -1.648438 3.230469 -1.316406 3.492188 -1.351562 C 4.648438 -1.613281 5.46875 -3.03125 6.128906 -3.921875 C 6.753906 -4.710938 7.28125 -5.503906 7.84375 -6.328125 C 8.171875 -6.753906 8.765625 -7.480469 8.632812 -8.105469 Z M 2.867188 -12.257812 C 2.933594 -12.160156 2.835938 -12.027344 3.066406 -11.898438 C 3.296875 -11.796875 3.425781 -11.929688 3.625 -11.996094 C 4.019531 -12.160156 4.316406 -12.589844 4.613281 -12.851562 C 4.710938 -12.917969 4.515625 -12.886719 4.515625 -12.886719 C 4.941406 -13.28125 4.582031 -12.820312 4.976562 -13.050781 C 5.371094 -13.3125 5.4375 -13.742188 5.765625 -14.105469 C 5.371094 -13.941406 5.074219 -13.710938 4.8125 -13.378906 C 4.480469 -12.953125 4.25 -12.753906 3.890625 -12.523438 C 4.285156 -12.820312 4.480469 -13.117188 4.8125 -13.644531 C 4.910156 -13.742188 5.007812 -13.808594 5.140625 -13.875 C 5.042969 -13.972656 5.042969 -14.070312 5.175781 -14.171875 C 5.273438 -14.335938 5.46875 -14.402344 5.570312 -14.566406 C 5.734375 -14.796875 5.703125 -15.09375 5.898438 -15.324219 C 6.0625 -15.457031 6.292969 -15.554688 6.425781 -15.6875 C 6.722656 -15.949219 7.050781 -16.445312 6.921875 -16.871094 C 6.789062 -17.269531 6.460938 -17.761719 6.097656 -17.992188 C 5.667969 -18.222656 5.074219 -18.324219 4.613281 -18.125 C 4.515625 -18.09375 4.121094 -17.992188 4.25 -17.863281 C 4.285156 -17.796875 4.316406 -17.796875 4.382812 -17.796875 C 4.085938 -17.566406 3.59375 -17.167969 4.285156 -16.90625 C 4.21875 -16.839844 4.285156 -16.542969 4.285156 -16.511719 C 4.25 -16.28125 3.789062 -15.058594 3.492188 -14.46875 L 3.890625 -15.058594 C 3.65625 -14.566406 3.394531 -14.105469 3.097656 -13.710938 C 3.296875 -14.136719 2.898438 -13.644531 2.898438 -13.542969 C 2.539062 -13.710938 2.636719 -12.6875 2.667969 -12.589844 C 2.667969 -12.554688 2.867188 -12.257812 2.867188 -12.257812 Z M 2.242188 -4.414062 L 2.242188 -4.382812 L 2.175781 -4.183594 L 2.242188 -4.449219 C 2.273438 -4.480469 2.273438 -4.480469 2.242188 -4.414062 Z M 3.328125 -14.203125 C 3.328125 -14.203125 3.394531 -14.269531 3.460938 -14.402344 Z M 3 -13.578125 C 3 -13.542969 3 -13.542969 2.964844 -13.511719 C 2.964844 -13.511719 2.964844 -13.542969 2.933594 -13.542969 C 2.964844 -13.542969 2.964844 -13.542969 3 -13.578125 Z M 3 -13.578125 "/></g></g></g><g fill="rgb(16.859436%, 16.859436%, 16.859436%)" fill-opacity="1"><g transform="translate(112.072555, 31.499998)"><g><path d="M 13.644531 -7.84375 C 13.480469 -8.632812 13.015625 -8.105469 12.820312 -7.808594 C 12.359375 -7.25 11.632812 -6.722656 11.074219 -6.195312 C 10.316406 -5.535156 9.558594 -4.84375 8.765625 -4.21875 C 8.371094 -3.890625 7.875 -3.425781 7.382812 -3.261719 C 7.316406 -3.230469 7.085938 -3.195312 7.085938 -3.164062 L 7.050781 -3.195312 C 7.050781 -3.195312 7.019531 -3.722656 7.050781 -3.757812 C 7.085938 -4.183594 7.21875 -4.613281 7.347656 -5.007812 C 7.382812 -5.074219 7.746094 -6.195312 7.679688 -6.195312 L 7.515625 -5.996094 C 7.710938 -6.394531 7.976562 -6.789062 8.207031 -7.21875 C 7.679688 -6.722656 7.316406 -6.164062 7.050781 -5.46875 C 6.921875 -5.140625 6.558594 -4.546875 6.492188 -4.054688 C 6.558594 -4.777344 7.050781 -5.734375 7.28125 -6.164062 C 7.613281 -6.855469 7.976562 -7.644531 8.402344 -8.304688 C 9.195312 -9.492188 10.90625 -10.578125 10.378906 -12.226562 C 9.917969 -13.773438 8.699219 -13.808594 7.746094 -12.917969 C 7.28125 -12.488281 3.363281 -7.480469 3.460938 -7.414062 C 3.460938 -7.414062 3.789062 -7.808594 4.21875 -8.371094 L 2.273438 -5.535156 C 2.242188 -5.535156 2.601562 -6.097656 2.570312 -6.128906 C 2.539062 -6.164062 2.308594 -5.933594 2.273438 -5.800781 C 2.339844 -6.492188 2.570312 -7.183594 2.636719 -7.875 C 2.667969 -8.140625 2.636719 -8.335938 2.703125 -8.601562 C 2.835938 -9.03125 2.964844 -9.492188 3.164062 -9.855469 C 3.296875 -10.117188 3.558594 -10.347656 3.625 -10.613281 C 3.757812 -11.039062 3.722656 -11.203125 4.019531 -11.566406 C 4.285156 -11.898438 4.679688 -12.226562 4.910156 -12.523438 C 5.46875 -13.347656 4.515625 -13.90625 3.988281 -14.007812 C 3.558594 -14.070312 3.128906 -14.105469 2.734375 -13.875 C 2.308594 -13.609375 2.40625 -13.378906 2.308594 -13.015625 C 2.207031 -12.554688 1.878906 -12.027344 1.714844 -11.601562 C 1.449219 -10.90625 1.21875 -10.214844 0.988281 -9.523438 C 0.726562 -8.832031 0.460938 -8.171875 0.261719 -7.480469 C 0.0976562 -6.921875 0.132812 -6.394531 0.0664062 -5.867188 C 0 -5.273438 -0.0976562 -4.878906 0.199219 -4.351562 C 0.527344 -3.789062 1.417969 -2.933594 2.011719 -3.65625 L 2.140625 -3.394531 C 2.703125 -4.613281 3.558594 -5.703125 4.25 -6.886719 C 4.546875 -7.414062 5.074219 -7.777344 5.503906 -8.335938 C 6.097656 -9.128906 6.625 -9.917969 7.28125 -10.675781 C 7.183594 -10.511719 6.753906 -9.753906 6.789062 -9.722656 C 6.855469 -9.753906 6.886719 -9.820312 6.953125 -9.886719 L 6.492188 -8.964844 C 6.460938 -8.996094 6.625 -9.226562 6.558594 -9.226562 C 6.328125 -9.292969 5.636719 -7.449219 5.570312 -7.28125 C 5.339844 -6.558594 5.304688 -5.898438 5.238281 -5.140625 C 5.207031 -4.777344 5.140625 -4.414062 5.140625 -4.054688 C 5.140625 -3.691406 5.175781 -3.328125 5.339844 -2.964844 C 5.4375 -2.769531 5.570312 -2.503906 5.734375 -2.339844 C 5.765625 -2.339844 6.128906 -2.011719 5.964844 -2.273438 L 6.164062 -2.074219 L 6.0625 -2.140625 C 6.03125 -1.976562 7.25 -1.316406 7.449219 -1.253906 C 8.371094 -0.957031 9.359375 -2.011719 9.953125 -2.636719 C 10.742188 -3.492188 11.402344 -4.480469 12.128906 -5.40625 C 12.523438 -5.933594 13.773438 -7.050781 13.644531 -7.84375 Z M 13.644531 -7.84375 "/></g></g></g><g fill="rgb(16.859436%, 16.859436%, 16.859436%)" fill-opacity="1"><g transform="translate(123.309553, 31.499998)"><g><path d="M 12.621094 -8.140625 C 12.621094 -8.105469 12.621094 -8.105469 12.589844 -8.140625 L 12.589844 -8.171875 C 12.0625 -9.0625 11.371094 -7.84375 11.074219 -7.414062 C 10.511719 -6.65625 9.984375 -5.933594 9.390625 -5.238281 C 8.898438 -4.648438 8.371094 -4.054688 7.976562 -3.425781 C 7.976562 -3.363281 7.910156 -3.195312 7.910156 -3.195312 C 7.777344 -3 7.578125 -2.835938 7.414062 -2.636719 C 7.117188 -2.339844 6.820312 -2.011719 6.492188 -1.714844 C 5.996094 -1.253906 3.230469 1.351562 2.867188 -0.328125 C 2.667969 -1.152344 2.933594 -2.175781 3.097656 -2.964844 C 3.195312 -3.394531 3.296875 -3.789062 3.363281 -4.21875 C 3.425781 -4.546875 3.328125 -4.878906 3.492188 -5.207031 C 3.59375 -5.40625 3.625 -5.371094 3.855469 -5.4375 L 4.414062 -5.636719 C 4.777344 -5.765625 5.140625 -5.898438 5.46875 -6.097656 C 5.964844 -6.394531 6.425781 -6.753906 6.855469 -7.117188 C 7.875 -7.976562 8.964844 -8.996094 9.390625 -10.28125 C 9.621094 -11.007812 9.65625 -11.796875 9.195312 -12.425781 C 8.765625 -12.984375 8.042969 -13.28125 7.382812 -13.414062 C 5.601562 -13.742188 4.25 -12.71875 3.230469 -11.371094 C 1.976562 -9.820312 1.085938 -7.910156 0.660156 -5.964844 C 0.429688 -5.007812 0.296875 -4.054688 0.132812 -3.066406 C -0.03125 -2.074219 -0.132812 -1.152344 0.394531 -0.230469 C 0.363281 -0.558594 0.296875 -0.855469 0.296875 -1.152344 C 0.296875 -1.316406 0.363281 -1.484375 0.363281 -1.613281 C 0.363281 -1.679688 0.296875 -1.878906 0.296875 -1.976562 C 0.296875 -2.273438 0.363281 -2.503906 0.429688 -2.800781 C 0.460938 -3.097656 0.429688 -3.394531 0.460938 -3.691406 C 0.496094 -4.019531 0.625 -4.285156 0.757812 -4.582031 C 0.855469 -4.84375 0.890625 -5.074219 0.988281 -5.339844 C 1.085938 -5.570312 1.152344 -5.832031 1.253906 -6.097656 C 1.285156 -6.261719 1.449219 -6.460938 1.550781 -6.65625 C 1.449219 -6.359375 1.253906 -6.097656 1.1875 -5.832031 C 1.085938 -5.4375 1.152344 -5.007812 1.121094 -4.613281 C 1.054688 -4.183594 0.921875 -3.757812 0.855469 -3.296875 C 0.789062 -2.867188 0.59375 -2.472656 0.527344 -2.042969 C 0.460938 -1.648438 0.328125 -1.351562 0.363281 -0.957031 C 0.363281 -0.726562 0.394531 -0.496094 0.429688 -0.296875 C 0.460938 -0.03125 0.625 0.132812 0.789062 0.328125 C 1.351562 0.988281 2.109375 1.515625 2.964844 1.746094 C 3.558594 1.910156 4.085938 1.878906 4.648438 1.582031 C 5.4375 1.152344 6.128906 0.496094 6.722656 -0.132812 C 7.28125 -0.757812 7.710938 -1.449219 8.207031 -2.109375 C 8.667969 -2.703125 9.226562 -3.261719 9.6875 -3.855469 L 11.46875 -6.164062 L 12.488281 -7.515625 C 12.65625 -7.710938 12.753906 -7.875 12.621094 -8.140625 Z M 4.449219 -7.777344 C 4.480469 -7.84375 4.480469 -7.875 4.480469 -7.875 C 4.976562 -8.929688 5.339844 -10.050781 6.03125 -11.074219 L 6.625 -11.863281 C 6.753906 -12.027344 6.988281 -12.324219 7.21875 -12.390625 C 7.710938 -12.488281 7.84375 -11.632812 7.808594 -11.304688 L 7.679688 -10.613281 C 7.644531 -10.414062 7.710938 -10.28125 7.679688 -10.117188 C 7.613281 -9.917969 7.449219 -9.820312 7.347656 -9.65625 L 6.789062 -8.929688 C 6.03125 -8.042969 5.074219 -7.28125 4.019531 -6.722656 C 4.183594 -7.085938 4.285156 -7.449219 4.449219 -7.777344 Z M 4.449219 -7.777344 "/></g></g></g></svg>