<?xml version="1.0" encoding="utf-8"?>
<!-- Generator: Adobe Illustrator 24.0.1, SVG Export Plug-In . SVG Version: 6.00 Build 0)  -->
<svg version="1.1" id="Capa_1" xmlns="http://www.w3.org/2000/svg" xmlns:xlink="http://www.w3.org/1999/xlink" x="0px" y="0px"
	 viewBox="0 0 512 512" style="enable-background:new 0 0 512 512;" xml:space="preserve">
<g>
	<g>
		<g>
			<path d="M336.7,147.7H173.4c-10.4,0-18.8,8.5-18.8,18.9v163.7c0,10.4,8.4,18.9,18.8,18.9h163.3c10.4,0,18.8-8.5,18.8-18.9V166.6
				C355.6,156.2,347.1,147.7,336.7,147.7z M343,330.3c0,3.5-2.8,6.3-6.3,6.3H173.4c-3.5,0-6.3-2.8-6.3-6.3V166.6
				c0-3.5,2.8-6.3,6.3-6.3h163.3c3.5,0,6.3,2.8,6.3,6.3V330.3z"/>
			<path d="M290.9,256.6c-2.5-2.4-6.4-2.4-8.9,0l-14.4,14.5l-26.9-27c-2.5-2.4-6.4-2.4-8.9,0l-44,44.1c-2.4,2.5-2.4,6.5,0.1,8.9
				c1.2,1.1,2.7,1.8,4.3,1.8h125.6c3.5,0,6.3-2.8,6.3-6.3c0-1.7-0.7-3.3-1.9-4.5L290.9,256.6z"/>
			<ellipse cx="273.9" cy="217" rx="18.8" ry="18.9"/>
		</g>
	</g>
</g>
</svg>
