<?xml version="1.0" encoding="utf-8"?>
<!-- Generator: Adobe Illustrator 24.0.1, SVG Export Plug-In . SVG Version: 6.00 Build 0)  -->
<svg version="1.1" id="Layer_1" xmlns="http://www.w3.org/2000/svg" xmlns:xlink="http://www.w3.org/1999/xlink" x="0px" y="0px"
	 viewBox="0 0 100 125" style="enable-background:new 0 0 100 125;" xml:space="preserve">
<style type="text/css">
	.st0{fill:#F2F2F2;}
</style>
<title>first_glyph_Set_random</title>
<path class="st0" d="M91.4,55.7c0,9-5.7,17-14.2,20L29.6,28.1c8.2-8,21.4-7.8,29.4,0.5c1.9,2,3.5,4.4,4.5,7
	c11.1-3.7,23.1,2.3,26.9,13.4C91,51.1,91.4,53.4,91.4,55.7z M25.9,32.9l-5.3-5.3l-4.2,4.2l7.3,7.3c-0.2,1.3-0.4,2.6-0.4,3.9
	c-0.4,0-0.9-0.1-1.3-0.1c-9.4,0-17,7.6-17,17s7.6,17,17,17h39.6l10,10l4.3-4.3L70,76.9L25.9,32.9z"/>
</svg>
