<?xml version="1.0" encoding="utf-8"?>
<!-- Generator: Adobe Illustrator 24.0.1, SVG Export Plug-In . SVG Version: 6.00 Build 0)  -->
<svg version="1.1" id="Layer_1" xmlns="http://www.w3.org/2000/svg" xmlns:xlink="http://www.w3.org/1999/xlink" x="0px" y="0px"
	 viewBox="0 0 64 80" style="enable-background:new 0 0 64 80;" xml:space="preserve">
<g>
	<g>
		<path d="M56.5,44.6c0-5.9-4.8-10.7-10.7-10.7c-0.1,0-0.1,0-0.2,0c-0.3-7.1-6.3-12.8-13.6-12.8c-4.6,0-8.8,2.3-11.4,6.1l-5.2-4.9
			l-1.3,1.4l37.3,35.3l1.3-1.3l-3.1-2.9C53.7,53,56.5,49,56.5,44.6z M48.1,53.1L22,28.4c2.2-3.5,6-5.6,10-5.6
			c6.5,0,11.9,5.4,11.9,11.9v1.1l1-0.1c0.3,0,0.6-0.1,0.9-0.1c4.9,0,8.9,4,8.9,8.9C54.7,48.6,52,52.1,48.1,53.1z"/>
		<path d="M11.1,42.8c0-5.2,3.6-9.5,8.7-10.5l-0.4-1.8c-5.8,1.2-10.1,6.2-10.1,12.4c0,6.9,5.6,12.5,12.5,12.5h22.8v-1.8H21.9
			C16,53.4,11.1,48.6,11.1,42.8z"/>
	</g>
</g>
</svg>
