<?xml version="1.0" encoding="utf-8"?>
<!-- Generator: Adobe Illustrator 24.0.1, SVG Export Plug-In . SVG Version: 6.00 Build 0)  -->
<svg version="1.1" id="Capa_1" xmlns="http://www.w3.org/2000/svg" xmlns:xlink="http://www.w3.org/1999/xlink" x="0px" y="0px"
	 viewBox="0 0 486.6 486.6" style="enable-background:new 0 0 486.6 486.6;" xml:space="preserve">
<g>
	<path d="M136.8,322.8h235.1c26.7,0,48.4-21.7,48.4-48.4v-98.9c0-0.1,0-0.3,0-0.4c0-0.3,0-0.4,0-0.7c0-0.2,0-0.4-0.1-0.5
		c0-0.2-0.1-0.4-0.1-0.6s-0.1-0.4-0.1-0.5c-0.1-0.2-0.1-0.4-0.2-0.6c-0.1-0.2-0.1-0.4-0.2-0.5c-0.1-0.2-0.1-0.4-0.2-0.5
		c-0.1-0.2-0.2-0.4-0.3-0.6c-0.1-0.2-0.2-0.4-0.3-0.4c-0.1-0.2-0.2-0.4-0.3-0.5c-0.1-0.2-0.2-0.3-0.3-0.4c-0.1-0.2-0.3-0.4-0.4-0.5
		c-0.1-0.2-0.2-0.3-0.4-0.4c-0.1-0.2-0.3-0.3-0.4-0.4c-0.1-0.2-0.3-0.3-0.4-0.4c-0.1-0.2-0.3-0.3-0.4-0.4c-0.2-0.2-0.3-0.3-0.4-0.4
		c-0.2-0.1-0.3-0.3-0.4-0.4c-0.2-0.1-0.4-0.3-0.5-0.4c-0.2-0.1-0.3-0.2-0.4-0.3c-0.2-0.1-0.4-0.2-0.5-0.4c-0.2-0.1-0.4-0.2-0.5-0.3
		c-0.2-0.1-0.4-0.2-0.5-0.3c-0.2-0.1-0.4-0.2-0.5-0.3c-0.2-0.1-0.4-0.1-0.5-0.2c-0.2-0.1-0.4-0.2-0.6-0.2s-0.4-0.1-0.4-0.1
		c-0.3-0.1-0.4-0.1-0.7-0.1c-0.1,0-0.2-0.1-0.4-0.1l-298-41.1V81c0-0.4,0-0.9-0.1-1.2c0-0.1,0-0.2-0.1-0.4c0-0.3-0.1-0.5-0.1-0.8
		c-0.1-0.3-0.1-0.4-0.2-0.7c0-0.2-0.1-0.3-0.1-0.4c-0.1-0.3-0.2-0.5-0.3-0.8c0-0.1-0.1-0.3-0.1-0.4c-0.1-0.3-0.2-0.4-0.4-0.7
		c-0.1-0.1-0.1-0.3-0.2-0.4c-0.1-0.2-0.2-0.4-0.4-0.5c-0.1-0.2-0.2-0.3-0.3-0.4c-0.1-0.2-0.2-0.3-0.3-0.4c-0.1-0.2-0.3-0.4-0.4-0.5
		c-0.1-0.1-0.2-0.2-0.3-0.3c-0.2-0.2-0.4-0.4-0.5-0.5c-0.1-0.1-0.2-0.2-0.3-0.3c-0.2-0.2-0.4-0.4-0.6-0.5c-0.1-0.1-0.3-0.2-0.4-0.3
		c-0.2-0.2-0.4-0.3-0.5-0.4c-0.3-0.2-0.5-0.4-0.7-0.4c-0.1-0.1-0.2-0.1-0.3-0.2c-0.4-0.2-0.8-0.4-1.1-0.5L40.3,42.8
		c-6.1-2.5-13,0.3-15.5,6.3s0.3,13,6.3,15.5l57.4,24.2v53.7v8.5v65.2v58.3v73.7c0,24.6,18.4,44.9,42.2,48
		c-4.3,7.2-6.8,15.6-6.8,24.6c0,26.4,21.5,47.8,47.8,47.8s47.8-21.5,47.8-47.8c0-8.8-2.4-17.1-6.6-24.1h106.5
		c-4.2,7.1-6.6,15.3-6.6,24.1c0,26.4,21.5,47.8,47.8,47.8c26.3,0,47.8-21.5,47.8-47.8c0-26.3-21.5-47.8-47.8-47.8H136.8
		c-13.7,0-24.7-11.1-24.7-24.7v-32.1C119.3,320.3,127.8,322.8,136.8,322.8z M195.7,420.7c0,13.3-10.9,24.1-24.1,24.1
		s-24.1-10.9-24.1-24.1s10.9-24.1,24.1-24.1S195.7,407.3,195.7,420.7z M384.6,420.7c0,13.3-10.9,24.1-24.1,24.1
		s-24.1-10.9-24.1-24.1s10.9-24.1,24.1-24.1S384.6,407.3,384.6,420.7z M371.9,299.1H136.8c-13.7,0-24.7-11.1-24.7-24.7v-58.3v-65.2
		v-4.4l284.6,39.2v88.7C396.6,288.1,385.5,299.1,371.9,299.1z"/>
</g>
<path d="M294.5,170.9c-0.6,0-1.2-0.1-1.8-0.2c-3.6-0.8-6.3-4-6.3-7.7v-16.1c0-57.7,46.9-104.6,104.6-104.6h2.7V7.5
	c0-3.3,2-6.2,5-7.5c3-1.2,6.5-0.5,8.8,1.9l69.7,72.4c3,3.1,3,8,0,11.2l-69.7,72.4c-2.3,2.4-5.8,3.1-8.8,1.9c-3-1.2-5-4.2-5-7.5
	v-34.9h-12.7c-33.7,0-64.1,18.7-79.1,48.9C300.4,169.1,297.5,170.9,294.5,170.9z M391,58.5c-45,0-82.3,33.8-87.8,77.4
	c19.5-21.7,47.5-34.5,77.7-34.5h20.8c4.4,0,8,3.6,8,8v22.9l50.5-52.4l-50.5-52.4v23c0,4.4-3.6,8-8,8H391z"/>
</svg>
